<svg id="visual" viewBox="0 0 500 500" width="500" height="500" xmlns="http://www.w3.org/2000/svg" xmlns:xlink="http://www.w3.org/1999/xlink" version="1.1"><rect x="0" y="0" width="500" height="500" fill="#60a5fa"></rect><defs><linearGradient id="grad1_0" x1="0%" y1="0%" x2="100%" y2="100%"><stop offset="30%" stop-color="#60a5fa" stop-opacity="1"></stop><stop offset="70%" stop-color="#60a5fa" stop-opacity="1"></stop></linearGradient></defs><defs><linearGradient id="grad2_0" x1="0%" y1="0%" x2="100%" y2="100%"><stop offset="30%" stop-color="#60a5fa" stop-opacity="1"></stop><stop offset="70%" stop-color="#60a5fa" stop-opacity="1"></stop></linearGradient></defs><g transform="translate(500, 0)"><path d="M0 300.5C-30.7 271.8 -61.4 243.1 -94.5 228.2C-127.7 213.3 -163.3 212.4 -196.6 196.6C-229.8 180.8 -260.7 150.2 -277.6 115C-294.6 79.8 -297.5 39.9 -300.5 0L0 0Z" fill="#FFFFFF"></path></g><g transform="translate(0, 500)"><path d="M0 -300.5C43 -300.5 86.1 -300.4 115 -277.6C143.9 -254.9 158.7 -209.5 177.5 -177.5C196.3 -145.5 219 -126.8 240.2 -99.5C261.4 -72.1 281 -36.1 300.5 0L0 0Z" fill="#FFFFFF"></path></g></svg>