<svg id="visual" viewBox="0 0 500 500" width="500" height="500" xmlns="http://www.w3.org/2000/svg" xmlns:xlink="http://www.w3.org/1999/xlink" version="1.1"><path d="M0 91L38 76L77 76L115 91L154 66L192 96L231 81L269 66L308 96L346 96L385 81L423 66L462 91L500 81L500 0L462 0L423 0L385 0L346 0L308 0L269 0L231 0L192 0L154 0L115 0L77 0L38 0L0 0Z" fill="#ffffff"></path><path d="M0 261L38 236L77 226L115 236L154 206L192 276L231 246L269 231L308 276L346 261L385 226L423 256L462 231L500 276L500 79L462 89L423 64L385 79L346 94L308 94L269 64L231 79L192 94L154 64L115 89L77 74L38 74L0 89Z" fill="#d1e0fe"></path><path d="M0 411L38 406L77 406L115 411L154 376L192 391L231 406L269 396L308 401L346 421L385 416L423 376L462 401L500 401L500 274L462 229L423 254L385 224L346 259L308 274L269 229L231 244L192 274L154 204L115 234L77 224L38 234L0 259Z" fill="#9fc2fc"></path><path d="M0 501L38 501L77 501L115 501L154 501L192 501L231 501L269 501L308 501L346 501L385 501L423 501L462 501L500 501L500 399L462 399L423 374L385 414L346 419L308 399L269 394L231 404L192 389L154 374L115 409L77 404L38 404L0 409Z" fill="#60a5fa"></path></svg>