<svg id="visual" viewBox="0 0 500 500" width="500" height="500" xmlns="http://www.w3.org/2000/svg" xmlns:xlink="http://www.w3.org/1999/xlink" version="1.1"><path d="M0 166L7.5 200.2C15 234.3 30 302.7 45.2 300.2C60.3 297.7 75.7 224.3 90.8 179.3C106 134.3 121 117.7 136.2 102.7C151.3 87.7 166.7 74.3 181.8 93.5C197 112.7 212 164.3 227.2 176.8C242.3 189.3 257.7 162.7 272.8 165.2C288 167.7 303 199.3 318.2 217.7C333.3 236 348.7 241 363.8 245.2C379 249.3 394 252.7 409.2 242.7C424.3 232.7 439.7 209.3 454.8 208.5C470 207.7 485 229.3 492.5 240.2L500 251L500 0L492.5 0C485 0 470 0 454.8 0C439.7 0 424.3 0 409.2 0C394 0 379 0 363.8 0C348.7 0 333.3 0 318.2 0C303 0 288 0 272.8 0C257.7 0 242.3 0 227.2 0C212 0 197 0 181.8 0C166.7 0 151.3 0 136.2 0C121 0 106 0 90.8 0C75.7 0 60.3 0 45.2 0C30 0 15 0 7.5 0L0 0Z" fill="#4377bf"></path><path d="M0 386L7.5 396C15 406 30 426 45.2 424.3C60.3 422.7 75.7 399.3 90.8 390.2C106 381 121 386 136.2 382.7C151.3 379.3 166.7 367.7 181.8 371.8C197 376 212 396 227.2 412.7C242.3 429.3 257.7 442.7 272.8 441C288 439.3 303 422.7 318.2 411C333.3 399.3 348.7 392.7 363.8 393.5C379 394.3 394 402.7 409.2 404.3C424.3 406 439.7 401 454.8 405.2C470 409.3 485 422.7 492.5 429.3L500 436L500 249L492.5 238.2C485 227.3 470 205.7 454.8 206.5C439.7 207.3 424.3 230.7 409.2 240.7C394 250.7 379 247.3 363.8 243.2C348.7 239 333.3 234 318.2 215.7C303 197.3 288 165.7 272.8 163.2C257.7 160.7 242.3 187.3 227.2 174.8C212 162.3 197 110.7 181.8 91.5C166.7 72.3 151.3 85.7 136.2 100.7C121 115.7 106 132.3 90.8 177.3C75.7 222.3 60.3 295.7 45.2 298.2C30 300.7 15 232.3 7.5 198.2L0 164Z" fill="#60a5fa"></path><path d="M0 501L7.5 501C15 501 30 501 45.2 501C60.3 501 75.7 501 90.8 501C106 501 121 501 136.2 501C151.3 501 166.7 501 181.8 501C197 501 212 501 227.2 501C242.3 501 257.7 501 272.8 501C288 501 303 501 318.2 501C333.3 501 348.7 501 363.8 501C379 501 394 501 409.2 501C424.3 501 439.7 501 454.8 501C470 501 485 501 492.5 501L500 501L500 434L492.5 427.3C485 420.7 470 407.3 454.8 403.2C439.7 399 424.3 404 409.2 402.3C394 400.7 379 392.3 363.8 391.5C348.7 390.7 333.3 397.3 318.2 409C303 420.7 288 437.3 272.8 439C257.7 440.7 242.3 427.3 227.2 410.7C212 394 197 374 181.8 369.8C166.7 365.7 151.3 377.3 136.2 380.7C121 384 106 379 90.8 388.2C75.7 397.3 60.3 420.7 45.2 422.3C30 424 15 404 7.5 394L0 384Z" fill="#94c1fc"></path></svg>