<svg id="visual" viewBox="0 0 500 500" width="500" height="500" xmlns="http://www.w3.org/2000/svg" xmlns:xlink="http://www.w3.org/1999/xlink" version="1.1"><path d="M0 51L45 51L45 31L91 31L91 81L136 81L136 76L182 76L182 56L227 56L227 31L273 31L273 66L318 66L318 61L364 61L364 36L409 36L409 36L455 36L455 51L500 51L500 51L500 0L500 0L455 0L455 0L409 0L409 0L364 0L364 0L318 0L318 0L273 0L273 0L227 0L227 0L182 0L182 0L136 0L136 0L91 0L91 0L45 0L45 0L0 0Z" fill="#ffffff"></path><path d="M0 126L45 126L45 136L91 136L91 151L136 151L136 151L182 151L182 116L227 116L227 86L273 86L273 166L318 166L318 156L364 156L364 121L409 121L409 71L455 71L455 151L500 151L500 116L500 49L500 49L455 49L455 34L409 34L409 34L364 34L364 59L318 59L318 64L273 64L273 29L227 29L227 54L182 54L182 74L136 74L136 79L91 79L91 29L45 29L45 49L0 49Z" fill="#dde8fe"></path><path d="M0 316L45 316L45 216L91 216L91 326L136 326L136 246L182 246L182 246L227 246L227 276L273 276L273 356L318 356L318 371L364 371L364 196L409 196L409 161L455 161L455 226L500 226L500 221L500 114L500 149L455 149L455 69L409 69L409 119L364 119L364 154L318 154L318 164L273 164L273 84L227 84L227 114L182 114L182 149L136 149L136 149L91 149L91 134L45 134L45 124L0 124Z" fill="#b9d1fd"></path><path d="M0 391L45 391L45 386L91 386L91 451L136 451L136 451L182 451L182 436L227 436L227 406L273 406L273 431L318 431L318 451L364 451L364 381L409 381L409 351L455 351L455 376L500 376L500 406L500 219L500 224L455 224L455 159L409 159L409 194L364 194L364 369L318 369L318 354L273 354L273 274L227 274L227 244L182 244L182 244L136 244L136 324L91 324L91 214L45 214L45 314L0 314Z" fill="#91bbfc"></path><path d="M0 501L45 501L45 501L91 501L91 501L136 501L136 501L182 501L182 501L227 501L227 501L273 501L273 501L318 501L318 501L364 501L364 501L409 501L409 501L455 501L455 501L500 501L500 501L500 404L500 374L455 374L455 349L409 349L409 379L364 379L364 449L318 449L318 429L273 429L273 404L227 404L227 434L182 434L182 449L136 449L136 449L91 449L91 384L45 384L45 389L0 389Z" fill="#60a5fa"></path></svg>